#!OML:ASF F:\VICON\USERDATA\INSTALL\rory3\rory3.ASF
:FULLY-SPECIFIED
:DEGREES
488
root -1.23587 29.3146 -6.98484 -176.992 9.97646 180.586
lowerback 11.9368 1.26496 -0.572614
upperback 0.836886 1.67545 -0.600683
thorax -5.81521 0.875355 -0.5922
lowerneck -12.208 0.32363 -6.51146
upperneck 8.5329 0.886956 6.00109
head 4.48817 0.601489 2.98618
rclavicle 1.2921e-015 1.05356e-014
rhumerus -28.7658 11.044 -84.6982
rradius 55.876
rwrist 8.96866
rhand -25.1 5.86347
rfingers 7.12502
rthumb 1.41497 -24.1116
lclavicle 1.2921e-015 1.05356e-014
lhumerus -28.744 12.7158 78.2854
lradius 31.552
lwrist 2.41114
lhand -23.4326 23.2942
lfingers 7.12502
lthumb 3.02529 53.2525
rfemur -15.6653 7.73553 20.2052
rtibia 47.8636
rfoot -19.4183 -15.6055
rtoes -7.55224
lfemur -20.0669 7.65623 -26.9845
ltibia 38.4517
lfoot -23.8182 9.52455
ltoes 14.2308
489
root -1.23117 29.3554 -7.01833 -177.062 9.79194 180.407
lowerback 11.832 1.25838 -0.749739
upperback 0.752413 1.63636 -0.633652
thorax -5.84991 0.858139 -0.519036
lowerneck -12.0757 0.329752 -6.4546
upperneck 8.49709 0.8745 6.05587
head 4.45621 0.599663 2.99153
rclavicle -6.41081e-015 7.7526e-015
rhumerus -28.8949 10.841 -84.647
rradius 55.7535
rwrist 9.25436
rhand -25.1632 5.65991
rfingers 7.12502
rthumb 1.35396 -24.3155
lclavicle -6.41081e-015 7.7526e-015
lhumerus -28.9431 12.6596 78.4205
lradius 31.6937
lwrist 2.44168
lhand -23.5189 23.0039
lfingers 7.12502
lthumb 2.94196 52.9633
rfemur -15.9841 7.74589 19.9061
rtibia 47.9286
rfoot -19.8272 -15.7159
rtoes -8.41749
lfemur -19.3202 6.97997 -27.1465
ltibia 37.4449
lfoot -23.6061 10.1179
ltoes 13.8993
490
root -1.22995 29.3915 -7.05464 -177.279 9.52968 180.003
lowerback 11.7768 1.19318 -1.11951
upperback 0.770392 1.5003 -0.700818
thorax -5.80777 0.801278 -0.356946
lowerneck -12.1645 0.365018 -6.58898
upperneck 8.52716 0.922151 6.32428
head 4.47496 0.637491 3.10233
rclavicle -6.26172e-015 3.97569e-016
rhumerus -28.9641 10.7489 -84.5963
rradius 55.7038
rwrist 9.32445
rhand -25.4082 5.67576
rfingers 7.12502
rthumb 1.11731 -24.3011
lclavicle -6.26172e-015 3.97569e-016
lhumerus -28.9646 12.7646 78.5594
lradius 31.6159
lwrist 2.52911
lhand -23.6688 23.0029
lfingers 7.12502
lthumb 2.79724 52.9643
rfemur -16.1499 7.64315 19.3348
rtibia 47.9696
rfoot -20.4158 -15.5709
rtoes -9.13341
lfemur -18.4197 6.25801 -27.5617
ltibia 36.4567
lfoot -23.2471 10.6441
ltoes 13.5992
491
root -1.22902 29.4262 -7.09284 -177.372 9.26278 179.855
lowerback 11.5645 1.10704 -1.21907
upperback 0.812036 1.37739 -0.702524
thorax -5.64689 0.743504 -0.276668
lowerneck -12.2219 0.437685 -6.43058
upperneck 8.45672 1.01345 6.17816
head 4.45827 0.678984 3.03662
rclavicle 2.88238e-015 1.0138e-014
rhumerus -29.0485 10.7924 -84.5657
rradius 55.6188
rwrist 8.96334
rhand -25.4712 6.10645
rfingers 7.12502
rthumb 1.05648 -23.8707
lclavicle 2.88238e-015 1.0138e-014
lhumerus -28.8402 12.837 78.7366
lradius 31.4386
lwrist 2.64399
lhand -23.6675 23.1686
lfingers 7.12502
lthumb 2.79849 53.13
rfemur -16.3818 7.51615 19.0204
rtibia 47.9395
rfoot -21.0986 -15.2492
rtoes -8.83951
lfemur -17.6447 5.57252 -27.7198
ltibia 35.5201
lfoot -22.9559 11.0542
ltoes 13.7324
492
root -1.22174 29.4598 -7.12625 -177.27 9.04076 180.023
lowerback 11.323 1.07756 -1.0417
upperback 0.719806 1.35913 -0.617042
thorax -5.607 0.727203 -0.279702
lowerneck -12.0638 0.458142 -6.38092
upperneck 8.39469 1.03454 6.08863
head 4.41257 0.683196 2.99946
rclavicle 6.90777e-015 -1.23246e-014
rhumerus -29.289 10.6204 -84.4637
rradius 55.5744
rwrist 9.14502
rhand -25.1973 5.93541
rfingers 7.12502
rthumb 1.32104 -24.0402
lclavicle 6.90777e-015 -1.23246e-014
lhumerus -28.8475 12.7648 78.9406
lradius 31.3469
lwrist 2.6646
lhand -23.9127 22.7153
lfingers 7.12502
lthumb 2.56166 52.6797
rfemur -16.7891 7.6056 19.0861
rtibia 47.8132
rfoot -21.5985 -15.0766
rtoes -8.62868
lfemur -17.1688 5.08833 -27.5183
ltibia 34.6926
lfoot -22.6774 11.4363
ltoes 13.2144
493
root -1.21332 29.4907 -7.15778 -177.269 8.78519 180.066
lowerback 11.2051 1.03516 -1.06882
upperback 0.630937 1.29857 -0.518111
thorax -5.63726 0.696454 -0.149722
lowerneck -11.9737 0.465858 -6.52829
upperneck 8.42965 1.05387 6.17954
head 4.40582 0.692299 3.05284
rclavicle -1.65737e-014 1.05356e-014
rhumerus -29.5059 10.4702 -84.316
rradius 55.6301
rwrist 9.55877
rhand -24.928 5.43811
rfingers 7.12502
rthumb 1.58112 -24.5358
lclavicle -1.65737e-014 1.05356e-014
lhumerus -28.9568 12.8057 79.1302
lradius 31.3381
lwrist 2.45523
lhand -24.2431 22.5447
lfingers 7.12502
lthumb 2.24258 52.5127
rfemur -17.0731 7.71728 19.0274
rtibia 47.6013
rfoot -22.0048 -14.8318
rtoes -8.95971
lfemur -16.672 4.66324 -27.4472
ltibia 33.9845
lfoot -22.4121 11.7887
ltoes 12.6192
494
root -1.20625 29.5199 -7.18635 -177.356 8.50803 180.11
lowerback 11.1715 0.955448 -1.07712
upperback 0.622627 1.19417 -0.456459
thorax -5.62798 0.645552 -0.0633094
lowerneck -11.9598 0.467342 -6.51192
upperneck 8.34835 1.05918 6.13014
head 4.37863 0.692087 3.03385
rclavicle 1.89839e-014 3.37934e-015
rhumerus -29.5707 10.351 -84.2671
rradius 55.585
rwrist 9.52576
rhand -24.9491 5.42969
rfingers 7.12502
rthumb 1.56069 -24.5443
lclavicle 1.89839e-014 3.37934e-015
lhumerus -28.9859 12.8768 79.2602
lradius 31.3606
lwrist 2.04221
lhand -24.7874 22.9109
lfingers 7.12502
lthumb 1.71694 52.8837
rfemur -17.2296 7.87184 18.9671
rtibia 47.314
rfoot -22.4382 -14.4415
rtoes -8.9974
lfemur -16.123 4.1792 -27.3746
ltibia 33.3791
lfoot -22.2832 12.1239
ltoes 12.4298
495
root -1.19769 29.546 -7.21644 -177.363 8.2694 180.199
lowerback 11.0406 0.906466 -0.986731
upperback 0.6321 1.14214 -0.441191
thorax -5.54283 0.617305 -0.0873981
lowerneck -11.9895 0.457068 -6.28386
upperneck 8.20997 1.0372 5.88692
head 4.34516 0.673808 2.91756
rclavicle -3.97569e-015 1.98785e-015
rhumerus -29.539 10.1536 -84.2506
rradius 55.413
rwrist 9.42555
rhand -25.1002 5.77741
rfingers 7.12502
rthumb 1.41482 -24.1976
lclavicle -3.97569e-015 1.98785e-015
lhumerus -28.93 12.667 79.4288
lradius 31.3045
lwrist 2.02954
lhand -25.4985 23.0642
lfingers 7.12502
lthumb 1.03008 53.0414
rfemur -17.4759 8.04803 18.9308
rtibia 46.9621
rfoot -22.7825 -13.979
rtoes -8.92314
lfemur -15.645 3.74652 -27.2541
ltibia 32.7871
lfoot -22.1972 12.354
ltoes 12.4337
496
root -1.18847 29.5697 -7.24987 -177.311 8.00822 180.454
lowerback 10.8423 0.88001 -0.709075
upperback 0.613435 1.14217 -0.395336
thorax -5.44701 0.609325 -0.192253
lowerneck -11.9676 0.443261 -6.14573
upperneck 8.10282 1.00082 5.86327
head 4.3119 0.659186 2.8837
rclavicle -1.06847e-014 -1.2921e-014
rhumerus -29.6009 9.88713 -84.2324
rradius 55.363
rwrist 9.37511
rhand -25.0788 5.65428
rfingers 7.12502
rthumb 1.43549 -24.3206
lclavicle -1.06847e-014 -1.2921e-014
lhumerus -28.8544 12.3626 79.6171
lradius 31.1198
lwrist 2.30243
lhand -25.26 22.7216
lfingers 7.12502
lthumb 1.26048 52.6976
rfemur -17.7251 8.19699 19.0578
rtibia 46.5351
rfoot -23.0997 -13.3639
rtoes -8.42326
lfemur -15.2191 3.38537 -26.9429
ltibia 32.1963
lfoot -22.0094 12.5506
ltoes 12.446
